<mxfile host="app.diagrams.net" modified="2022-11-08T02:56:29.727Z" agent="5.0 (Windows NT 10.0; Win64; x64) AppleWebKit/537.36 (KHTML, like Gecko) Chrome/107.0.0.0 Safari/537.36" etag="V3JcWQn_faW9YX5y8QmX" version="20.5.3" type="github">
  <diagram id="6a731a19-8d31-9384-78a2-239565b7b9f0" name="Page-1">
    <mxGraphModel dx="936" dy="683" grid="1" gridSize="10" guides="1" tooltips="1" connect="1" arrows="1" fold="1" page="1" pageScale="1" pageWidth="1169" pageHeight="827" background="none" math="0" shadow="0">
      <root>
        <mxCell id="0" />
        <mxCell id="1" parent="0" />
        <mxCell id="mO7HR5LilEdB7sUg-t3T-55" value="耕地地块" style="rounded=0;whiteSpace=wrap;html=1;fontSize=15;fillColor=#f5f5f5;fontColor=#333333;strokeColor=#666666;fontStyle=1" vertex="1" parent="1">
          <mxGeometry x="180" y="350" width="520" height="50" as="geometry" />
        </mxCell>
        <mxCell id="mO7HR5LilEdB7sUg-t3T-56" value="" style="rounded=0;whiteSpace=wrap;html=1;fontSize=15;fillColor=#e1d5e7;strokeColor=#9673a6;" vertex="1" parent="1">
          <mxGeometry x="180" y="414" width="520" height="86" as="geometry" />
        </mxCell>
        <mxCell id="mO7HR5LilEdB7sUg-t3T-57" value="" style="rounded=0;whiteSpace=wrap;html=1;fontSize=14;fillColor=#e1d5e7;strokeColor=#9673a6;" vertex="1" parent="1">
          <mxGeometry x="180" y="530" width="250" height="120" as="geometry" />
        </mxCell>
        <mxCell id="mO7HR5LilEdB7sUg-t3T-59" value="土类" style="rounded=0;whiteSpace=wrap;html=1;fontSize=12;fillColor=#e1d5e7;strokeColor=#9673a6;" vertex="1" parent="1">
          <mxGeometry x="270" y="450" width="70" height="30" as="geometry" />
        </mxCell>
        <mxCell id="mO7HR5LilEdB7sUg-t3T-60" value="亚类" style="rounded=0;whiteSpace=wrap;html=1;fontSize=12;fillColor=#e1d5e7;strokeColor=#9673a6;" vertex="1" parent="1">
          <mxGeometry x="360" y="450" width="70" height="30" as="geometry" />
        </mxCell>
        <mxCell id="mO7HR5LilEdB7sUg-t3T-61" value="土属" style="rounded=0;whiteSpace=wrap;html=1;fontSize=12;fillColor=#e1d5e7;strokeColor=#9673a6;" vertex="1" parent="1">
          <mxGeometry x="450" y="450" width="70" height="30" as="geometry" />
        </mxCell>
        <mxCell id="mO7HR5LilEdB7sUg-t3T-62" value="容重" style="rounded=0;whiteSpace=wrap;html=1;fontSize=12;fillColor=#e1d5e7;strokeColor=#9673a6;" vertex="1" parent="1">
          <mxGeometry x="197.5" y="606" width="70" height="30" as="geometry" />
        </mxCell>
        <mxCell id="mO7HR5LilEdB7sUg-t3T-63" value="土层厚度" style="rounded=0;whiteSpace=wrap;html=1;fontSize=12;fillColor=#e1d5e7;strokeColor=#9673a6;" vertex="1" parent="1">
          <mxGeometry x="275.5" y="606" width="70" height="30" as="geometry" />
        </mxCell>
        <mxCell id="mO7HR5LilEdB7sUg-t3T-64" value="耕层厚度" style="rounded=0;whiteSpace=wrap;html=1;fontSize=12;fillColor=#e1d5e7;strokeColor=#9673a6;" vertex="1" parent="1">
          <mxGeometry x="352.5" y="606" width="70" height="30" as="geometry" />
        </mxCell>
        <mxCell id="mO7HR5LilEdB7sUg-t3T-69" value="种植属性" style="rounded=0;whiteSpace=wrap;html=1;fontSize=15;fillColor=#dae8fc;strokeColor=#6c8ebf;fontStyle=1" vertex="1" parent="1">
          <mxGeometry x="180" y="300" width="520" height="36" as="geometry" />
        </mxCell>
        <mxCell id="mO7HR5LilEdB7sUg-t3T-70" value="种植类型" style="rounded=0;whiteSpace=wrap;html=1;fontSize=14;fillColor=#dae8fc;strokeColor=#6c8ebf;" vertex="1" parent="1">
          <mxGeometry x="180" y="250" width="230" height="36" as="geometry" />
        </mxCell>
        <mxCell id="mO7HR5LilEdB7sUg-t3T-71" value="轮作品种" style="rounded=0;whiteSpace=wrap;html=1;fontSize=14;fillColor=#dae8fc;strokeColor=#6c8ebf;" vertex="1" parent="1">
          <mxGeometry x="430" y="250" width="155" height="36" as="geometry" />
        </mxCell>
        <mxCell id="mO7HR5LilEdB7sUg-t3T-72" value="稻+N" style="rounded=0;whiteSpace=wrap;html=1;fontSize=14;fillColor=#dae8fc;strokeColor=#6c8ebf;" vertex="1" parent="1">
          <mxGeometry x="600" y="210" width="100" height="76" as="geometry" />
        </mxCell>
        <mxCell id="mO7HR5LilEdB7sUg-t3T-73" value="果树" style="rounded=0;whiteSpace=wrap;html=1;fontSize=12;fillColor=#dae8fc;strokeColor=#6c8ebf;" vertex="1" parent="1">
          <mxGeometry x="180" y="210" width="70" height="30" as="geometry" />
        </mxCell>
        <mxCell id="mO7HR5LilEdB7sUg-t3T-74" value="稻麦" style="rounded=0;whiteSpace=wrap;html=1;fontSize=12;fillColor=#dae8fc;strokeColor=#6c8ebf;" vertex="1" parent="1">
          <mxGeometry x="260" y="210" width="70" height="30" as="geometry" />
        </mxCell>
        <mxCell id="mO7HR5LilEdB7sUg-t3T-75" value="蔬菜" style="rounded=0;whiteSpace=wrap;html=1;fontSize=12;fillColor=#dae8fc;strokeColor=#6c8ebf;" vertex="1" parent="1">
          <mxGeometry x="340" y="210" width="70" height="30" as="geometry" />
        </mxCell>
        <mxCell id="mO7HR5LilEdB7sUg-t3T-76" value="油菜花" style="rounded=0;whiteSpace=wrap;html=1;fontSize=12;fillColor=#dae8fc;strokeColor=#6c8ebf;" vertex="1" parent="1">
          <mxGeometry x="430" y="210" width="70" height="30" as="geometry" />
        </mxCell>
        <mxCell id="mO7HR5LilEdB7sUg-t3T-77" value="红花草" style="rounded=0;whiteSpace=wrap;html=1;fontSize=12;fillColor=#dae8fc;strokeColor=#6c8ebf;" vertex="1" parent="1">
          <mxGeometry x="515" y="210" width="70" height="30" as="geometry" />
        </mxCell>
        <mxCell id="mO7HR5LilEdB7sUg-t3T-78" value="政策属性" style="rounded=0;whiteSpace=wrap;html=1;fontSize=15;fillColor=#f8cecc;strokeColor=#b85450;" vertex="1" parent="1">
          <mxGeometry x="180" y="160" width="520" height="36" as="geometry" />
        </mxCell>
        <mxCell id="mO7HR5LilEdB7sUg-t3T-79" value="高标准农田" style="rounded=0;whiteSpace=wrap;html=1;fontSize=14;fillColor=#f8cecc;strokeColor=#b85450;" vertex="1" parent="1">
          <mxGeometry x="180" y="100" width="180" height="36" as="geometry" />
        </mxCell>
        <mxCell id="mO7HR5LilEdB7sUg-t3T-80" value="永久基本农田" style="rounded=0;whiteSpace=wrap;html=1;fontSize=14;fillColor=#f8cecc;strokeColor=#b85450;" vertex="1" parent="1">
          <mxGeometry x="380" y="100" width="140" height="36" as="geometry" />
        </mxCell>
        <mxCell id="mO7HR5LilEdB7sUg-t3T-81" value="粮食生产功能区" style="rounded=0;whiteSpace=wrap;html=1;fontSize=14;fillColor=#f8cecc;strokeColor=#b85450;" vertex="1" parent="1">
          <mxGeometry x="540" y="100" width="140" height="36" as="geometry" />
        </mxCell>
        <mxCell id="mO7HR5LilEdB7sUg-t3T-82" value="土壤类型" style="text;html=1;strokeColor=none;fillColor=none;align=center;verticalAlign=middle;whiteSpace=wrap;rounded=0;fontSize=14;fontStyle=1" vertex="1" parent="1">
          <mxGeometry x="410" y="414" width="60" height="30" as="geometry" />
        </mxCell>
        <mxCell id="mO7HR5LilEdB7sUg-t3T-84" value="酸碱度" style="rounded=0;whiteSpace=wrap;html=1;fontSize=12;fillColor=#e1d5e7;strokeColor=#9673a6;" vertex="1" parent="1">
          <mxGeometry x="197.5" y="566" width="70" height="30" as="geometry" />
        </mxCell>
        <mxCell id="mO7HR5LilEdB7sUg-t3T-85" value="有机质" style="rounded=0;whiteSpace=wrap;html=1;fontSize=12;fillColor=#e1d5e7;strokeColor=#9673a6;" vertex="1" parent="1">
          <mxGeometry x="275.5" y="566" width="70" height="30" as="geometry" />
        </mxCell>
        <mxCell id="mO7HR5LilEdB7sUg-t3T-86" value="水溶性盐" style="rounded=0;whiteSpace=wrap;html=1;fontSize=12;fillColor=#e1d5e7;strokeColor=#9673a6;" vertex="1" parent="1">
          <mxGeometry x="352.5" y="566" width="70" height="30" as="geometry" />
        </mxCell>
        <mxCell id="mO7HR5LilEdB7sUg-t3T-87" value="土种" style="rounded=0;whiteSpace=wrap;html=1;fontSize=12;fillColor=#e1d5e7;strokeColor=#9673a6;" vertex="1" parent="1">
          <mxGeometry x="540" y="450" width="70" height="30" as="geometry" />
        </mxCell>
        <mxCell id="mO7HR5LilEdB7sUg-t3T-88" value="&lt;span style=&quot;&quot;&gt;土壤理化性质&lt;/span&gt;" style="text;html=1;strokeColor=none;fillColor=none;align=center;verticalAlign=middle;whiteSpace=wrap;rounded=0;fontSize=14;fontStyle=1" vertex="1" parent="1">
          <mxGeometry x="260" y="533" width="100" height="30" as="geometry" />
        </mxCell>
        <mxCell id="mO7HR5LilEdB7sUg-t3T-89" value="&lt;span style=&quot;&quot;&gt;土壤理化性质&lt;/span&gt;" style="text;html=1;strokeColor=none;fillColor=none;align=center;verticalAlign=middle;whiteSpace=wrap;rounded=0;fontSize=14;fontStyle=1" vertex="1" parent="1">
          <mxGeometry x="530" y="533" width="100" height="30" as="geometry" />
        </mxCell>
        <mxCell id="mO7HR5LilEdB7sUg-t3T-90" value="" style="rounded=0;whiteSpace=wrap;html=1;fontSize=14;fillColor=#e1d5e7;strokeColor=#9673a6;" vertex="1" parent="1">
          <mxGeometry x="450" y="530" width="250" height="120" as="geometry" />
        </mxCell>
        <mxCell id="mO7HR5LilEdB7sUg-t3T-91" value="&lt;span style=&quot;&quot;&gt;土壤养分指标&lt;/span&gt;" style="text;html=1;strokeColor=none;fillColor=none;align=center;verticalAlign=middle;whiteSpace=wrap;rounded=0;fontSize=14;fontStyle=1" vertex="1" parent="1">
          <mxGeometry x="530" y="533" width="100" height="30" as="geometry" />
        </mxCell>
        <mxCell id="mO7HR5LilEdB7sUg-t3T-92" value="&lt;div data-lake_diagram_content_editor_data=&quot;true&quot;&gt;有效磷/铜/硼/钼/锰/铁/锌/硅/硫&lt;/div&gt;" style="rounded=0;whiteSpace=wrap;html=1;fontSize=12;fillColor=#e1d5e7;strokeColor=#9673a6;" vertex="1" parent="1">
          <mxGeometry x="460" y="566" width="225" height="30" as="geometry" />
        </mxCell>
        <mxCell id="mO7HR5LilEdB7sUg-t3T-93" value="全氮" style="rounded=0;whiteSpace=wrap;html=1;fontSize=12;fillColor=#e1d5e7;strokeColor=#9673a6;" vertex="1" parent="1">
          <mxGeometry x="462.5" y="610" width="65" height="30" as="geometry" />
        </mxCell>
        <mxCell id="mO7HR5LilEdB7sUg-t3T-94" value="速效钾" style="rounded=0;whiteSpace=wrap;html=1;fontSize=12;fillColor=#e1d5e7;strokeColor=#9673a6;" vertex="1" parent="1">
          <mxGeometry x="540" y="610" width="65" height="30" as="geometry" />
        </mxCell>
        <mxCell id="mO7HR5LilEdB7sUg-t3T-95" value="缓效钾" style="rounded=0;whiteSpace=wrap;html=1;fontSize=12;fillColor=#e1d5e7;strokeColor=#9673a6;" vertex="1" parent="1">
          <mxGeometry x="620" y="610" width="65" height="30" as="geometry" />
        </mxCell>
      </root>
    </mxGraphModel>
  </diagram>
</mxfile>
